<svg width="54" height="54" viewBox="0 0 54 54" fill="none" xmlns="http://www.w3.org/2000/svg">
<g clip-path="url(#clip0_36_193)">
<path d="M27.0088 -0.000366211C15.7366 -0.000366211 12.4399 0.0112655 11.799 0.0644393C9.48579 0.256779 8.04633 0.621102 6.47814 1.40209C5.26959 2.00237 4.31647 2.6982 3.3758 3.67361C1.66266 5.45243 0.62439 7.64086 0.248538 10.2422C0.065803 11.5051 0.0126438 11.7627 0.00184581 18.2133C-0.00230726 20.3635 0.00184581 23.1934 0.00184581 26.989C0.00184581 38.2552 0.014305 41.5495 0.0682949 42.1893C0.255183 44.4408 0.608193 45.8574 1.35575 47.4069C2.7844 50.373 5.51296 52.5997 8.72744 53.4305C9.84046 53.7172 11.0698 53.875 12.6479 53.9498C13.3166 53.9789 20.1318 53.9996 26.9511 53.9996C33.7704 53.9996 40.5898 53.9913 41.2418 53.9581C43.0691 53.8721 44.1302 53.7296 45.3035 53.4264C46.8974 53.0175 48.3828 52.2655 49.656 51.223C50.9293 50.1804 51.9596 48.8724 52.6752 47.3903C53.4082 45.8782 53.7799 44.4076 53.9481 42.2736C53.9846 41.8083 54 34.3902 54 26.982C54 19.5726 53.9834 12.1681 53.9468 11.7028C53.7766 9.53435 53.4049 8.07623 52.6482 6.53502C52.0273 5.27339 51.3379 4.33122 50.337 3.36786C48.5512 1.66131 46.3667 0.622763 43.7631 0.247224C42.5018 0.0648547 42.2506 0.0108501 35.7967 -0.000366211H27.0088Z" fill="url(#paint0_radial_36_193)"/>
<path d="M27.0088 -0.000366211C15.7366 -0.000366211 12.4399 0.0112655 11.799 0.0644393C9.48579 0.256779 8.04633 0.621102 6.47814 1.40209C5.26959 2.00237 4.31647 2.6982 3.3758 3.67361C1.66266 5.45243 0.62439 7.64086 0.248538 10.2422C0.065803 11.5051 0.0126438 11.7627 0.00184581 18.2133C-0.00230726 20.3635 0.00184581 23.1934 0.00184581 26.989C0.00184581 38.2552 0.014305 41.5495 0.0682949 42.1893C0.255183 44.4408 0.608193 45.8574 1.35575 47.4069C2.7844 50.373 5.51296 52.5997 8.72744 53.4305C9.84046 53.7172 11.0698 53.875 12.6479 53.9498C13.3166 53.9789 20.1318 53.9996 26.9511 53.9996C33.7704 53.9996 40.5898 53.9913 41.2418 53.9581C43.0691 53.8721 44.1302 53.7296 45.3035 53.4264C46.8974 53.0175 48.3828 52.2655 49.656 51.223C50.9293 50.1804 51.9596 48.8724 52.6752 47.3903C53.4082 45.8782 53.7799 44.4076 53.9481 42.2736C53.9846 41.8083 54 34.3902 54 26.982C54 19.5726 53.9834 12.1681 53.9468 11.7028C53.7766 9.53435 53.4049 8.07623 52.6482 6.53502C52.0273 5.27339 51.3379 4.33122 50.337 3.36786C48.5512 1.66131 46.3667 0.622763 43.7631 0.247224C42.5018 0.0648547 42.2506 0.0108501 35.7967 -0.000366211H27.0088Z" fill="url(#paint1_radial_36_193)"/>
<path d="M26.9964 7.06177C21.5824 7.06177 20.903 7.08545 18.7766 7.18224C16.6544 7.27945 15.2058 7.61553 13.9383 8.10863C12.6272 8.61793 11.515 9.29922 10.407 10.408C9.29808 11.5163 8.61698 12.6288 8.10615 13.9399C7.61194 15.2082 7.27554 16.6576 7.18002 18.7795C7.08533 20.9065 7.06041 21.5865 7.06041 27.0019C7.06041 32.4173 7.0845 33.0949 7.18085 35.2218C7.27845 37.3446 7.61443 38.7936 8.10698 40.0615C8.61656 41.373 9.29767 42.4854 10.4061 43.5938C11.5137 44.703 12.6259 45.3859 13.9362 45.8952C15.2046 46.3883 16.6536 46.7244 18.7754 46.8216C20.9017 46.9184 21.5808 46.9421 26.9943 46.9421C32.4086 46.9421 33.086 46.9184 35.2124 46.8216C37.3346 46.7244 38.7848 46.3883 40.0532 45.8952C41.3639 45.3859 42.4744 44.703 43.5821 43.5938C44.6909 42.4854 45.372 41.373 45.8828 40.0619C46.3729 38.7936 46.7093 37.3442 46.809 35.2222C46.9045 33.0953 46.9294 32.4173 46.9294 27.0019C46.9294 21.5865 46.9045 20.9069 46.809 18.7799C46.7093 16.6571 46.3729 15.2082 45.8828 13.9403C45.372 12.6288 44.6909 11.5163 43.5821 10.408C42.4732 9.29881 41.3643 8.61752 40.0519 8.10863C38.7811 7.61553 37.3317 7.27945 35.2095 7.18224C33.0831 7.08545 32.4062 7.06177 26.9906 7.06177H26.9964ZM25.2081 10.6552C25.7388 10.6543 26.331 10.6552 26.9964 10.6552C32.3189 10.6552 32.9498 10.6743 35.0517 10.7698C36.9953 10.8587 38.0502 11.1836 38.7529 11.4565C39.6832 11.8179 40.3464 12.2499 41.0437 12.9479C41.7414 13.6458 42.1733 14.3104 42.5355 15.241C42.8083 15.943 43.1335 16.9982 43.222 18.9424C43.3175 21.0444 43.3383 21.6758 43.3383 26.9974C43.3383 32.3189 43.3175 32.9503 43.222 35.0523C43.1331 36.9965 42.8083 38.0517 42.5355 38.7537C42.1742 39.6843 41.7414 40.3469 41.0437 41.0444C40.346 41.7423 39.6836 42.1743 38.7529 42.5357C38.051 42.8099 36.9953 43.1339 35.0517 43.2228C32.9502 43.3184 32.3189 43.3391 26.9964 43.3391C21.6734 43.3391 21.0425 43.3184 18.9411 43.2228C16.9974 43.1331 15.9426 42.8082 15.2395 42.5353C14.3092 42.1739 13.6447 41.7418 12.947 41.0439C12.2492 40.346 11.8173 39.683 11.4552 38.7521C11.1823 38.05 10.8571 36.9948 10.7687 35.0507C10.6732 32.9487 10.6541 32.3172 10.6541 26.9924C10.6541 21.6675 10.6732 21.0394 10.7687 18.9374C10.8576 16.9932 11.1823 15.938 11.4552 15.2352C11.8165 14.3046 12.2492 13.6399 12.947 12.942C13.6447 12.2441 14.3092 11.8121 15.2395 11.4499C15.9422 11.1757 16.9974 10.8516 18.9411 10.7623C20.7801 10.6792 21.4927 10.6543 25.2081 10.6502V10.6552ZM37.6374 13.966C37.1642 13.966 36.7017 14.1064 36.3083 14.3694C35.9148 14.6323 35.6082 15.0061 35.4272 15.4434C35.2462 15.8806 35.1988 16.3618 35.2912 16.826C35.3836 17.2902 35.6115 17.7165 35.9461 18.0511C36.2808 18.3857 36.7071 18.6136 37.1712 18.7058C37.6353 18.798 38.1163 18.7505 38.5534 18.5693C38.9905 18.3881 39.364 18.0812 39.6268 17.6876C39.8895 17.294 40.0297 16.8313 40.0295 16.358C40.0295 15.037 38.958 13.9652 37.6374 13.9652V13.966ZM26.9964 16.7618C21.3428 16.7618 16.7591 21.3468 16.7591 27.0019C16.7591 32.657 21.3428 37.2399 26.9964 37.2399C32.6499 37.2399 37.2324 32.657 37.2324 27.0019C37.2324 21.3468 32.6495 16.7618 26.996 16.7618H26.9964ZM26.9964 20.3552C30.666 20.3552 33.6413 23.3309 33.6413 27.0019C33.6413 30.6726 30.666 33.6486 26.9964 33.6486C23.3263 33.6486 20.3515 30.6726 20.3515 27.0019C20.3515 23.3309 23.3263 20.3552 26.9964 20.3552Z" fill="white"/>
</g>
<defs>
<radialGradient id="paint0_radial_36_193" cx="0" cy="0" r="1" gradientUnits="userSpaceOnUse" gradientTransform="translate(14.3438 58.1588) rotate(-90) scale(53.518 49.7759)">
<stop stop-color="#FFDD55"/>
<stop offset="0.1" stop-color="#FFDD55"/>
<stop offset="0.5" stop-color="#FF543E"/>
<stop offset="1" stop-color="#C837AB"/>
</radialGradient>
<radialGradient id="paint1_radial_36_193" cx="0" cy="0" r="1" gradientUnits="userSpaceOnUse" gradientTransform="translate(-9.04529 3.8897) rotate(78.6806) scale(23.9228 98.6106)">
<stop stop-color="#3771C8"/>
<stop offset="0.128" stop-color="#3771C8"/>
<stop offset="1" stop-color="#6600FF" stop-opacity="0"/>
</radialGradient>
<clipPath id="clip0_36_193">
<rect width="54" height="54" fill="white" transform="translate(0 -0.000366211)"/>
</clipPath>
</defs>
</svg>
