<svg width="54" height="55" viewBox="0 0 54 55" fill="none" xmlns="http://www.w3.org/2000/svg">
<g clip-path="url(#clip0_36_152)">
<path d="M50.0137 0.586182H3.98625C2.92903 0.586182 1.91511 1.00616 1.16755 1.75373C0.419979 2.50129 0 3.51521 0 4.57243V50.5999C0 51.6572 0.419979 52.6711 1.16755 53.4186C1.91511 54.1662 2.92903 54.5862 3.98625 54.5862H50.0137C51.071 54.5862 52.0849 54.1662 52.8325 53.4186C53.58 52.6711 54 51.6572 54 50.5999V4.57243C54 3.51521 53.58 2.50129 52.8325 1.75373C52.0849 1.00616 51.071 0.586182 50.0137 0.586182ZM16.095 46.5874H7.97625V20.7987H16.095V46.5874ZM12.03 17.2249C11.1091 17.2197 10.2103 16.9419 9.44715 16.4264C8.68399 15.9109 8.09064 15.1809 7.74197 14.3285C7.39331 13.4761 7.30496 12.5395 7.48807 11.637C7.67118 10.7344 8.11755 9.9063 8.77085 9.25719C9.42414 8.60808 10.2551 8.16703 11.1588 7.98972C12.0625 7.8124 12.9985 7.90677 13.8486 8.2609C14.6988 8.61503 15.425 9.21306 15.9355 9.97951C16.4461 10.746 16.7182 11.6465 16.7175 12.5674C16.7262 13.184 16.6107 13.796 16.3778 14.367C16.1449 14.938 15.7995 15.4562 15.362 15.8908C14.9246 16.3255 14.4042 16.6676 13.8317 16.8968C13.2592 17.126 12.6465 17.2376 12.03 17.2249ZM46.02 46.6099H37.905V32.5212C37.905 28.3662 36.1388 27.0837 33.8588 27.0837C31.4513 27.0837 29.0887 28.8987 29.0887 32.6262V46.6099H20.97V20.8174H28.7775V24.3912H28.8825C29.6663 22.8049 32.4113 20.0937 36.6 20.0937C41.13 20.0937 46.0238 22.7824 46.0238 30.6574L46.02 46.6099Z" fill="#0A66C2"/>
</g>
<defs>
<clipPath id="clip0_36_152">
<rect width="54" height="54" fill="white" transform="translate(0 0.586182)"/>
</clipPath>
</defs>
</svg>
