<svg width="54" height="55" viewBox="0 0 54 55" fill="none" xmlns="http://www.w3.org/2000/svg">
<rect y="0.655518" width="54" height="54" rx="3.93" fill="#FEFE00"/>
<path d="M46.1382 38.3563C39.229 34.9711 38.1278 29.7444 38.0788 29.3567C38.0195 28.8871 37.9523 28.5179 38.4641 28.0403C38.9577 27.5787 41.1475 26.2069 41.7551 25.7777C42.7594 25.0669 43.2017 24.3574 42.8757 23.4851C42.6477 22.8817 42.0926 22.6544 41.5078 22.6544C41.3233 22.6549 41.1394 22.6758 40.9595 22.7167C39.856 22.959 38.7844 23.5185 38.1643 23.6697C38.0898 23.6891 38.0133 23.6996 37.9363 23.7008C37.6057 23.7008 37.4804 23.552 37.5123 23.1493C37.5898 21.9286 37.7539 19.546 37.5636 17.3204C37.3025 14.2582 36.3267 12.741 35.1697 11.3991C34.61 10.7484 32.0109 7.95276 26.9952 7.95276C21.9794 7.95276 19.3838 10.7484 18.8275 11.3911C17.667 12.7329 16.6924 14.2501 16.4336 17.3123C16.2432 19.538 16.4142 21.9194 16.4849 23.1413C16.5077 23.5243 16.3914 23.6928 16.0608 23.6928C15.9839 23.6914 15.9074 23.681 15.8329 23.6616C15.2139 23.5105 14.1423 22.9509 13.0389 22.7086C12.8589 22.6677 12.675 22.6469 12.4906 22.6463C11.9035 22.6463 11.3506 22.877 11.1226 23.477C10.7966 24.3493 11.2366 25.0589 12.2443 25.7696C12.8519 26.1988 15.0417 27.5695 15.5353 28.0322C16.046 28.5098 15.9799 28.8791 15.9206 29.3486C15.8716 29.7421 14.7693 34.9688 7.86125 38.3482C7.45657 38.5467 6.76804 38.9666 7.98208 39.6451C9.88806 40.7112 11.1568 40.597 12.1429 41.2396C12.9796 41.7854 12.4849 42.9622 13.0936 43.3868C13.8414 43.9095 16.0517 43.3499 18.9073 44.3041C21.3012 45.1025 22.7557 47.3582 27.0009 47.3582C31.246 47.3582 32.7428 45.0921 35.0944 44.3041C37.9443 43.3499 40.1592 43.9095 40.9081 43.3868C41.5157 42.9622 41.0221 41.7854 41.8589 41.2396C42.8449 40.597 44.1125 40.7112 46.0196 39.6451C47.2314 38.9747 46.5429 38.5547 46.1382 38.3563Z" fill="white"/>
<path d="M48.0109 37.4485C47.7168 36.6361 47.1566 36.2013 46.5186 35.8412C46.3986 35.7698 46.2883 35.7127 46.1942 35.6688C46.0039 35.5689 45.8092 35.4723 45.6157 35.3702C43.627 34.2997 42.0742 32.9492 40.9971 31.3484C40.6913 30.8978 40.426 30.4201 40.2045 29.9211C40.1126 29.6543 40.1169 29.5028 40.1828 29.3644C40.2483 29.2579 40.3348 29.1663 40.437 29.0955C40.7787 28.866 41.1312 28.6332 41.3702 28.4762C41.7963 28.1962 42.1336 27.9745 42.351 27.8175C43.1674 27.2377 43.7384 26.6218 44.0952 25.9334C44.3442 25.4578 44.4894 24.9333 44.521 24.3956C44.5525 23.858 44.4696 23.3197 44.278 22.8175C43.7373 21.3726 42.3932 20.4756 40.7646 20.4756C40.4211 20.4752 40.0786 20.512 39.7427 20.5854C39.653 20.6051 39.5632 20.626 39.4756 20.649C39.4908 19.6609 39.4691 18.6179 39.3826 17.5913C39.0755 13.9824 37.8309 12.0906 36.5332 10.5821C35.7022 9.63673 34.7234 8.83696 33.6362 8.21491C31.667 7.07306 29.434 6.49335 26.9998 6.49335C24.5657 6.49335 22.3434 7.07306 20.3721 8.21491C19.2822 8.83714 18.3014 9.63852 17.4697 10.5865C16.1721 12.095 14.9274 13.9901 14.6203 17.5957C14.5338 18.6222 14.5122 19.6708 14.5262 20.6534C14.4386 20.6304 14.3499 20.6095 14.2602 20.5897C13.9244 20.5164 13.5818 20.4796 13.2383 20.48C11.6087 20.48 10.2624 21.377 9.72384 22.8218C9.53135 23.3243 9.44765 23.863 9.47844 24.4012C9.50923 24.9394 9.65378 25.4646 9.90226 25.9411C10.2602 26.6295 10.8312 27.2454 11.6476 27.8251C11.8639 27.9789 12.2023 28.2006 12.6284 28.4839C12.8587 28.6354 13.195 28.8572 13.5249 29.079C13.6403 29.1547 13.7383 29.2547 13.8125 29.3721C13.8817 29.516 13.8839 29.6708 13.7811 29.9562C13.5626 30.4447 13.3017 30.9124 13.0015 31.3539C11.9482 32.9185 10.4408 34.2448 8.51594 35.3065C7.49621 35.8554 6.43647 36.2222 5.98878 37.4573C5.65139 38.3895 5.87199 39.4501 6.72952 40.3438C7.04424 40.6774 7.40927 40.9579 7.81089 41.1749C8.64656 41.6412 9.53517 42.0022 10.457 42.2498C10.6472 42.2996 10.8278 42.3817 10.9912 42.4925C11.3037 42.7702 11.2594 43.1886 11.6757 43.8012C11.8847 44.1178 12.1503 44.3919 12.4586 44.6093C13.3324 45.2219 14.3143 45.2604 15.3545 45.301C16.2943 45.3372 17.3594 45.3789 18.5759 45.7863C19.0799 45.9554 19.6033 46.2825 20.2099 46.6646C21.6665 47.5737 23.6606 48.8177 26.9977 48.8177C30.3348 48.8177 32.3429 47.5671 33.8103 46.6547C34.4126 46.2792 34.9328 45.9553 35.4226 45.7907C36.6392 45.3822 37.7043 45.3416 38.6441 45.3054C39.6843 45.2648 40.6662 45.2263 41.54 44.6137C41.9052 44.3551 42.2095 44.0177 42.431 43.6255C42.7306 43.1084 42.723 42.7472 43.0041 42.4947C43.1574 42.3891 43.327 42.3105 43.5059 42.2619C44.4403 42.0135 45.341 41.6492 46.1877 41.1771C46.6144 40.9447 46.9985 40.6394 47.3231 40.2746L47.334 40.2615C48.1385 39.3875 48.3407 38.3576 48.0109 37.4485ZM45.0447 39.0669C43.2356 40.0814 42.0331 39.9727 41.0977 40.5843C40.3029 41.1036 40.7733 42.2235 40.1958 42.6275C39.4864 43.1249 37.3897 42.5924 34.6808 43.5004C32.4467 44.2503 31.0215 46.4066 27.0031 46.4066C22.9847 46.4066 21.593 44.2547 19.3221 43.4949C16.6187 42.5869 14.5176 43.1194 13.8071 42.622C13.2307 42.218 13.699 41.0981 12.9052 40.5788C11.9688 39.9672 10.7663 40.0759 8.95823 39.0669C7.80656 38.4213 8.45971 38.0217 8.8436 37.8328C15.3967 34.6115 16.4424 29.6378 16.4889 29.2689C16.5451 28.8221 16.6079 28.4707 16.1234 28.0162C15.6552 27.577 13.5778 26.2716 13.0015 25.8631C12.0477 25.1868 11.6281 24.5116 11.9374 23.6815C12.1537 23.1073 12.6814 22.891 13.2351 22.891C13.41 22.8916 13.5844 22.9114 13.7552 22.9503C14.802 23.1809 15.8184 23.7134 16.4056 23.8572C16.4763 23.8756 16.5489 23.8856 16.6219 23.8868C16.9355 23.8868 17.0458 23.7265 17.0242 23.362C16.9571 22.1993 16.7949 19.9332 16.9755 17.8153C17.2232 14.9013 18.1477 13.4576 19.2464 12.1807C19.7741 11.5669 22.2537 8.90661 26.9955 8.90661C31.7373 8.90661 34.2234 11.5559 34.7511 12.1675C35.8509 13.4444 36.7765 14.8882 37.022 17.8021C37.2026 19.92 37.0469 22.1872 36.9733 23.3489C36.9485 23.732 37.062 23.8737 37.3756 23.8737C37.4486 23.8725 37.5212 23.8625 37.5919 23.844C38.1801 23.7002 39.1966 23.1677 40.2434 22.9371C40.4142 22.8983 40.5886 22.8784 40.7635 22.8778C41.3204 22.8778 41.8449 23.0974 42.0612 23.6684C42.3705 24.4984 41.9531 25.1736 40.9982 25.85C40.4218 26.2584 38.3445 27.5627 37.8763 28.003C37.3907 28.4576 37.4545 28.8089 37.5108 29.2558C37.5573 29.6301 38.6019 34.6038 45.1561 37.8197C45.5432 38.0162 46.1964 38.4158 45.0447 39.0669Z" fill="black"/>
</svg>
