<svg width="54" height="35" viewBox="0 0 54 35" fill="none" xmlns="http://www.w3.org/2000/svg">
<path fill-rule="evenodd" clip-rule="evenodd" d="M7.32505 2.76434H46.5044C47.0933 2.76434 47.6764 2.8816 48.2204 3.10942C48.7644 3.33724 49.2587 3.67115 49.675 4.09209C50.0913 4.51302 50.4215 5.01273 50.6467 5.56266C50.8718 6.1126 50.9876 6.70198 50.9874 7.29715V22.4046C50.9874 22.9995 50.8714 23.5886 50.6461 24.1382C50.4208 24.6878 50.0905 25.1871 49.6742 25.6077C49.2579 26.0283 48.7637 26.3619 48.2198 26.5894C47.6759 26.8168 47.093 26.9338 46.5044 26.9336H32.4531L34.3762 31.7115L25.8878 26.9336H7.31937C6.13173 26.932 4.99322 26.4543 4.15379 25.6051C3.31435 24.756 2.8426 23.6049 2.8421 22.4046V7.29715C2.8421 6.09531 3.31435 4.94266 4.15501 4.09265C4.99567 3.24264 6.13592 2.76485 7.32505 2.76434Z" fill="#7D57A4"/>
<path d="M5.26547 6.86811C5.41375 6.68081 5.6009 6.52869 5.8137 6.42248C6.0265 6.31626 6.25977 6.25854 6.49705 6.2534C7.49621 6.18318 8.06968 6.65938 8.21747 7.68199C8.83389 11.8299 9.49389 15.3509 10.1975 18.2451L14.5099 9.95701C14.9002 9.20888 15.3935 8.81311 15.9897 8.76971C16.8537 8.70843 17.3937 9.26441 17.6097 10.4377C18.0155 12.7578 18.6392 15.0335 19.4722 17.234C19.9901 12.1861 20.8547 8.53671 22.0661 6.28595C22.183 6.03351 22.3658 5.81808 22.5948 5.66285C22.8239 5.50763 23.0905 5.4185 23.3659 5.40505C23.8144 5.36779 24.2595 5.50861 24.6069 5.79763C24.7843 5.93295 24.93 6.10601 25.0338 6.30457C25.1376 6.50313 25.1969 6.72232 25.2076 6.94663C25.2393 7.2777 25.1734 7.61085 25.0181 7.90413C24.2501 9.34421 23.6185 11.7386 23.1234 15.0873C22.6345 18.3198 22.4539 20.8482 22.5815 22.6726C22.6262 23.1198 22.5469 23.5707 22.3522 23.9748C22.2577 24.1788 22.1105 24.3532 21.9261 24.4796C21.7416 24.606 21.5269 24.6797 21.3044 24.6929C20.7853 24.7312 20.268 24.4842 19.7469 23.9557C17.9179 22.0598 16.4653 19.239 15.3891 15.4933C14.1259 18.0466 13.1785 19.9565 12.5469 21.223C11.3912 23.4699 10.4008 24.6221 9.576 24.6795C9.04042 24.7178 8.58442 24.2633 8.208 23.316C7.19747 20.7155 6.11368 15.6841 4.95663 8.22202C4.9109 7.98708 4.91478 7.74504 4.968 7.51173C5.02122 7.27842 5.12259 7.05909 5.26547 6.86811Z" fill="white"/>
<path d="M47.5579 9.99347C47.2328 9.40045 46.7825 8.88711 46.2388 8.48994C45.6952 8.09276 45.0717 7.82151 44.4126 7.69547C44.0612 7.62039 43.7032 7.58189 43.344 7.58057C41.4594 7.58057 39.9196 8.5719 38.7246 10.5546C37.7071 12.2406 37.1774 14.1811 37.1956 16.1559C37.1956 17.6879 37.5114 19.001 38.143 20.0951C38.4677 20.6887 38.9182 21.2026 39.4623 21.5998C40.0063 21.9971 40.6305 22.2679 41.2901 22.3931C41.6406 22.4698 41.9982 22.509 42.3568 22.5099C44.2604 22.5099 45.7996 21.5186 46.9743 19.5359C47.9918 17.8378 48.5219 15.8871 48.5053 13.902C48.5053 12.37 48.1895 11.0671 47.5579 9.99347ZM45.0758 15.5106C44.8067 16.8128 44.3078 17.7939 43.579 18.4539C43.0017 18.9786 42.4724 19.1925 41.9912 19.0955C41.5099 18.9984 41.124 18.5695 40.8335 17.8086C40.6109 17.2314 40.4934 16.6183 40.4867 15.9989C40.4849 15.5088 40.5332 15.0198 40.6307 14.5397C40.8183 13.6902 41.1713 12.8869 41.6691 12.1766C42.3234 11.205 43.0067 10.7971 43.7192 10.9529C44.2004 11.0512 44.5857 11.4789 44.875 12.2359C45.0968 12.8126 45.2136 13.425 45.2198 14.0437C45.2223 14.5364 45.174 15.028 45.0758 15.5106Z" fill="white"/>
<path d="M35.227 9.99347C34.9019 9.40045 34.4515 8.88711 33.9079 8.48994C33.3643 8.09276 32.7408 7.82151 32.0817 7.69547C31.7303 7.62039 31.3722 7.58189 31.0131 7.58057C29.1272 7.58057 27.588 8.5719 26.3956 10.5546C25.3766 12.2401 24.8462 14.1808 24.8646 16.1559C24.8646 17.6879 25.1804 19.001 25.812 20.0951C26.1362 20.6892 26.5866 21.2033 27.1307 21.6006C27.6749 21.9979 28.2993 22.2686 28.9592 22.3931C29.3097 22.4698 29.6672 22.509 30.0259 22.5099C31.9307 22.5099 33.4705 21.5186 34.6453 19.5359C35.6663 17.8387 36.2009 15.8883 36.1895 13.902C36.1895 12.37 35.8737 11.0671 35.2421 9.99347H35.227ZM32.7448 15.5106C32.4758 16.8153 31.9756 17.7977 31.2442 18.4578C30.6657 18.9825 30.1364 19.1963 29.6564 19.0993C29.1764 19.0023 28.7918 18.572 28.5025 17.8086C28.2799 17.2314 28.1624 16.6183 28.1558 15.9989C28.1539 15.5088 28.2022 15.0198 28.2998 14.5397C28.489 13.6907 28.8418 12.8877 29.3381 12.1766C29.9899 11.2076 30.6733 10.801 31.3882 10.9567C31.8695 11.055 32.2541 11.4827 32.5421 12.2398C32.7645 12.8163 32.882 13.4287 32.8888 14.0475C32.8908 14.5377 32.8425 15.0267 32.7448 15.5068V15.5106Z" fill="white"/>
</svg>
