<svg width="54" height="54" viewBox="0 0 54 54" fill="none" xmlns="http://www.w3.org/2000/svg">
<path d="M3.375 26.9998C3.375 13.952 13.9523 3.37476 27 3.37476C40.0477 3.37476 50.625 13.952 50.625 26.9998C50.625 40.0475 40.0477 50.6248 27 50.6248C13.9523 50.6248 3.375 40.0475 3.375 26.9998Z" fill="white"/>
<path d="M14.5268 12.6381L12.3812 15.3201C12.0603 15.7212 12.1025 16.3017 12.478 16.6522L24.4688 27.8435V43.8748H29.5312V27.8435L41.522 16.6522C41.8975 16.3017 41.9397 15.7212 41.6188 15.3201L39.4732 12.6381C39.1164 12.1922 38.456 12.1433 38.0375 12.5319L27 22.781L15.9625 12.5319C15.544 12.1433 14.8836 12.1922 14.5268 12.6381Z" fill="#FF0013"/>
</svg>
