<svg width="54" height="54" viewBox="0 0 54 54" fill="none" xmlns="http://www.w3.org/2000/svg">
<g clip-path="url(#clip0_36_189)">
<path d="M52.9245 13.9181C52.6192 12.7693 52.0175 11.7208 51.1797 10.8776C50.3419 10.0343 49.2972 9.42597 48.1504 9.11332C43.9286 7.97809 27.0536 7.97809 27.0536 7.97809C27.0536 7.97809 10.1786 7.97809 5.95677 9.11332C4.80993 9.42597 3.76532 10.0343 2.92749 10.8776C2.08965 11.7208 1.48798 12.7693 1.18268 13.9181C0.053589 18.1583 0.0535889 27.0008 0.0535889 27.0008C0.0535889 27.0008 0.053589 35.8433 1.18268 40.0835C1.48798 41.2324 2.08965 42.2808 2.92749 43.1241C3.76532 43.9673 4.80993 44.5757 5.95677 44.8883C10.1786 46.0235 27.0536 46.0235 27.0536 46.0235C27.0536 46.0235 43.9286 46.0235 48.1504 44.8883C49.2972 44.5757 50.3419 43.9673 51.1797 43.1241C52.0175 42.2808 52.6192 41.2324 52.9245 40.0835C54.0536 35.8433 54.0536 27.0008 54.0536 27.0008C54.0536 27.0008 54.0536 18.1583 52.9245 13.9181Z" fill="#FF0302"/>
<path d="M21.531 35.0304V18.9715L35.6446 27.0009L21.531 35.0304Z" fill="#FEFEFE"/>
</g>
<defs>
<clipPath id="clip0_36_189">
<rect width="54" height="54" fill="white" transform="translate(0 0.000793457)"/>
</clipPath>
</defs>
</svg>
